<svg width="15" height="15" viewBox="0 0 15 15" fill="none" xmlns="http://www.w3.org/2000/svg">
<path d="M10.5386 2.84129L12.1582 4.46019L10.5386 2.84129ZM11.5801 1.41511L7.20061 5.79461C6.97432 6.02059 6.81999 6.30849 6.75707 6.62203L6.35254 8.64699L8.3775 8.24169C8.69103 8.17899 8.97856 8.02528 9.20492 7.79893L13.5844 3.41942C13.716 3.28781 13.8204 3.13157 13.8916 2.95962C13.9629 2.78767 13.9995 2.60338 13.9995 2.41726C13.9995 2.23114 13.9629 2.04685 13.8916 1.8749C13.8204 1.70295 13.716 1.54671 13.5844 1.41511C13.4528 1.2835 13.2966 1.17911 13.1246 1.10788C12.9527 1.03666 12.7684 1 12.5823 1C12.3961 1 12.2119 1.03666 12.0399 1.10788C11.868 1.17911 11.7117 1.2835 11.5801 1.41511V1.41511Z" stroke="#7E7E7E" stroke-width="2" stroke-linecap="round" stroke-linejoin="round"/>
<path d="M12.4707 10.1764V12.4706C12.4707 12.8762 12.3095 13.2652 12.0227 13.552C11.7359 13.8388 11.3469 14 10.9413 14H2.52942C2.1238 14 1.73478 13.8388 1.44796 13.552C1.16114 13.2652 1 12.8762 1 12.4706V4.05872C1 3.65309 1.16114 3.26408 1.44796 2.97725C1.73478 2.69043 2.1238 2.5293 2.52942 2.5293H4.82356" stroke="#7E7E7E" stroke-width="2" stroke-linecap="round" stroke-linejoin="round"/>
</svg>
